/* XPM */
static char *statusquo16[] = {
/* columns rows colors chars-per-pixel */
"16 16 136 2 ",
"   c #464646",
".  c #4A4A4A",
"X  c #4C4C4C",
"o  c #4D4D4D",
"O  c #505050",
"+  c #575757",
"@  c #636363",
"#  c #666666",
"$  c #6B6B6B",
"%  c #6E6E6E",
"&  c #6F6F6F",
"*  c #7C7C7C",
"=  c #7E7E7E",
"-  c #878686",
";  c #959595",
":  c #999999",
">  c #9A9A9A",
",  c #9B9B9B",
"<  c #9C9C9C",
"1  c #A6A39C",
"2  c #AAA79E",
"3  c #AEA89B",
"4  c #ADA99C",
"5  c #A0A0A0",
"6  c #A2A2A2",
"7  c #A3A3A2",
"8  c #A4A4A3",
"9  c #A4A4A4",
"0  c #A6A6A6",
"q  c #A7A7A7",
"w  c #ACAAA3",
"e  c #AEABA2",
"r  c #ACACAC",
"t  c #ADADAD",
"y  c #B0AFAD",
"u  c #B2B1AF",
"i  c #B8B4AC",
"p  c #B8B5AD",
"a  c #BBB7AE",
"s  c #B0B0B0",
"d  c #B3B2B1",
"f  c #B3B3B3",
"g  c #B4B4B3",
"h  c #B7B6B3",
"j  c #B4B4B4",
"k  c #B5B5B5",
"l  c #B6B5B4",
"z  c #B6B6B6",
"x  c #B8B7B6",
"c  c #B8B8B6",
"v  c #BAB9B6",
"b  c #BDBBB4",
"n  c #B8B8B8",
"m  c #B9B9B9",
"M  c #B9B9BA",
"N  c #BABABA",
"B  c #BBBBBB",
"V  c #BEBCBA",
"C  c #BCBCBC",
"Z  c #BDBDBD",
"A  c #BEBEBE",
"S  c #BFBFBF",
"D  c #C6C1B2",
"F  c #C9C1B0",
"G  c #C8C3B9",
"H  c #CBC7B8",
"J  c #C9C5BC",
"K  c #C8C6BD",
"L  c #C9C7BF",
"P  c #CCC7BC",
"I  c #D4CEBD",
"U  c #C0C0C0",
"Y  c #C3C3C3",
"T  c #C4C4C4",
"R  c #C5C5C5",
"E  c #C7C7C5",
"W  c #C7C7C7",
"Q  c #CCC9C0",
"!  c #CECAC0",
"~  c #CFCBC1",
"^  c #CDCAC2",
"/  c #CAC9C7",
"(  c #C8C8C8",
")  c #C9C8C8",
"_  c #CACACA",
"`  c #CBCBCA",
"'  c #CACACB",
"]  c #CDCCCB",
"[  c #CBCCCC",
"{  c #CCCCCC",
"}  c #CECECD",
"|  c #CFCECD",
" . c #CECECE",
".. c #CFCFCE",
"X. c #CFCFCF",
"o. c #D0CFCE",
"O. c #D7D3C3",
"+. c #DBD6C7",
"@. c #D4D2C9",
"#. c #D6D3CA",
"$. c #D1D0CF",
"%. c #D9D5CC",
"&. c #D0D0D0",
"*. c #D0D1D1",
"=. c #D1D1D1",
"-. c #D2D2D2",
";. c #D3D2D2",
":. c #D3D3D3",
">. c #D6D5D2",
",. c #D5D5D5",
"<. c #D6D6D6",
"1. c #D7D7D7",
"2. c #DDDAD1",
"3. c #D8D8D8",
"4. c #DADADA",
"5. c #DBDBDB",
"6. c #DCDCDC",
"7. c #F5EDDC",
"8. c #E0E0E0",
"9. c #E6E6E6",
"0. c #E7E7E7",
"q. c #E8E8E7",
"w. c #E8E8E8",
"e. c #EAEAE9",
"r. c #EBEBEB",
"t. c #ECECEB",
"y. c #EDEDEE",
"u. c #F5F0E0",
"i. c #FAF7EE",
"p. c #F0F1F1",
"a. c #F1F1F1",
"s. c #F1F2F2",
"d. c #F3F3F3",
"f. c #F4F4F4",
"g. c #FCFBF7",
"h. c None",
/* pixels */
"h.h.h.h.h.h.h.h.h.h.h.h.h.h.h.h.",
"h.h.h.h.h.u.y.2.@.:.Q h.h.h.h.h.",
"h.h.h.i.q.Q :.:.W k 2 y v h.h.h.",
"h.h.g.+.} y.p.0.4.} M 5 4 b h.h.",
"h.h.e.} f.p.9.3.W S M n 8 g h.h.",
"h.7.Q e.d.4.X.> @ < M B S w H h.",
"h.e.] p.e., # X $ k S Y ] u E h.",
"h.%.} 8.M * @ . * M > t :.S K h.",
"h.Q Y :.f 5 S - o O % S <.K Y h.",
"h./ y W S n r +   * ; 4.4.k } h.",
"h.F 1 B S C 0 % 0 :.:.4.} p O.h.",
"h.h.t 5 W ( ` } <.<.<.:.k ` h.h.",
"h.h.p 4 q W $.<.<.:.` k D >.h.h.",
"h.h.h.C h w g C S k p ` #.h.h.h.",
"h.h.h.h.h.P ` G G } I h.h.h.h.h.",
"h.h.h.h.h.h.h.h.h.h.h.h.h.h.h.h."
};
