/* XPM */
static char * statusquo16_xpm[] = {
"16 16 203 2",
"  	c None",
". 	c #F9F8F0",
"+ 	c #FBFBFB",
"@ 	c #F4F0E8",
"# 	c #ECE9DE",
"$ 	c #E1E1E1",
"% 	c #D5D5D5",
"& 	c #FCFCFC",
"* 	c #FCFCFD",
"= 	c #EEE5C6",
"- 	c #F5EED9",
"; 	c #ECE1BD",
"> 	c #E3D5AC",
", 	c #DCD3BD",
"' 	c #CEC7B6",
") 	c #C4C2B7",
"! 	c #BABABA",
"~ 	c #FAF4E8",
"{ 	c #FAFAFA",
"] 	c #F4EAC6",
"^ 	c #F9DD7D",
"/ 	c #F7D879",
"( 	c #F7D778",
"_ 	c #F6D374",
": 	c #F2CB6B",
"< 	c #F1C663",
"[ 	c #CBBA93",
"} 	c #B7B8B9",
"| 	c #BCBAAF",
"1 	c #EFD785",
"2 	c #F9DB7E",
"3 	c #EDC766",
"4 	c #F0CC6E",
"5 	c #EFC969",
"6 	c #F0C868",
"7 	c #E7BB5C",
"8 	c #E7BD5F",
"9 	c #ECBB59",
"0 	c #DCB05D",
"a 	c #BBBAB7",
"b 	c #B9B9B9",
"c 	c #FCFDFD",
"d 	c #F2E6C0",
"e 	c #F1D172",
"f 	c #EDC868",
"g 	c #F6D273",
"h 	c #F3CE6E",
"i 	c #F1C868",
"j 	c #EFC262",
"k 	c #EDBE5C",
"l 	c #EBB856",
"m 	c #E4B456",
"n 	c #E2A33D",
"o 	c #CAAD81",
"p 	c #C5C5C5",
"q 	c #FBF9F6",
"r 	c #EEDFB6",
"s 	c #EDC767",
"t 	c #F6D576",
"u 	c #F4CF71",
"v 	c #EED086",
"w 	c #F1C563",
"x 	c #F5E3BF",
"y 	c #F2F2F1",
"z 	c #E1C490",
"A 	c #E5A741",
"B 	c #E19E38",
"C 	c #DD952E",
"D 	c #D6912A",
"E 	c #D5C496",
"F 	c #C7C5BE",
"G 	c #F9F9F9",
"H 	c #F1E9D1",
"I 	c #EBC464",
"J 	c #F3CD6D",
"K 	c #F1C767",
"L 	c #EEE3CA",
"M 	c #E7D5AF",
"N 	c #EBE5D9",
"O 	c #E0BB7E",
"P 	c #E2A13B",
"Q 	c #DE9932",
"R 	c #DB9129",
"S 	c #D98D23",
"T 	c #D98E22",
"U 	c #D1C7BA",
"V 	c #CFCFCF",
"W 	c #F0EDE6",
"X 	c #E4D3AE",
"Y 	c #EFC76E",
"Z 	c #EBCA84",
"` 	c #E9D0A1",
" .	c #E1C9A1",
"..	c #D0CDC8",
"+.	c #CDA76E",
"@.	c #DE9327",
"#.	c #D6953A",
"$.	c #CE9A51",
"%.	c #DA932C",
"&.	c #DE9823",
"*.	c #D9C193",
"=.	c #DFDDD5",
"-.	c #E5DECF",
";.	c #DBC79B",
">.	c #EDC060",
",.	c #EBBC5E",
"'.	c #E9BC6A",
").	c #E5AA48",
"!.	c #E29F38",
"~.	c #BC9A68",
"{.	c #948F8A",
"].	c #C5B7A5",
"^.	c #D9C09B",
"/.	c #DB9C3A",
"(.	c #DF9F2B",
"_.	c #E6AC2F",
":.	c #DFC891",
"<.	c #DFDCD1",
"[.	c #DADADA",
"}.	c #D4C8B2",
"|.	c #E2AD4B",
"1.	c #E7AE4B",
"2.	c #E3A33F",
"3.	c #DF9A34",
"4.	c #DE9125",
"5.	c #C1A37A",
"6.	c #CDC4B5",
"7.	c #DBAB61",
"8.	c #E4D5B9",
"9.	c #E3A62B",
"0.	c #E8B333",
"a.	c #E2B239",
"b.	c #DDD8C7",
"c.	c #D0CABD",
"d.	c #CDBF9E",
"e.	c #E0A23A",
"f.	c #DD9C35",
"g.	c #DD962E",
"h.	c #DB9026",
"i.	c #C8A169",
"j.	c #DBD0BE",
"k.	c #D9AA5B",
"l.	c #E2A025",
"m.	c #E6B23B",
"n.	c #EAB837",
"o.	c #E4B73C",
"p.	c #E4BA3F",
"q.	c #E2D6B4",
"r.	c #CDCDCA",
"s.	c #BBBCBF",
"t.	c #C4A77A",
"u.	c #DA9428",
"v.	c #D69228",
"w.	c #D98F22",
"x.	c #DB9221",
"y.	c #DF9B22",
"z.	c #E4AA2E",
"A.	c #E8B435",
"B.	c #E7B93A",
"C.	c #E2BA48",
"D.	c #E4BD42",
"E.	c #E7D99D",
"F.	c #DBDCDF",
"G.	c #B8B8B8",
"H.	c #B8B8B6",
"I.	c #D49639",
"J.	c #D99222",
"K.	c #D69729",
"L.	c #DC9F2B",
"M.	c #E0A932",
"N.	c #E2B037",
"O.	c #E3B73D",
"P.	c #E4BE4B",
"Q.	c #E4BF46",
"R.	c #EDD264",
"S.	c #DBDBDB",
"T.	c #CBCBCB",
"U.	c #BBB7AF",
"V.	c #BEBEBF",
"W.	c #CEAE75",
"X.	c #DEA52D",
"Y.	c #DBA834",
"Z.	c #E0B03A",
"`.	c #E0B744",
" +	c #E2BB45",
".+	c #E8C445",
"++	c #E9DB9D",
"@+	c #DBDAD7",
"#+	c #D5D3C7",
"$+	c #BDBDBD",
"%+	c #CCC7BC",
"&+	c #CFCBC1",
"*+	c #D6CFBA",
"=+	c #E0CF98",
"-+	c #E3D295",
";+	c #DEDAC7",
">+	c #DDD1B3",
",+	c #CBCCCC",
"'+	c #C9C9C9",
")+	c #D2D2D2",
"!+	c #DED9CD",
"~+	c #DDD8CB",
"{+	c #CCCAC5",
"          . + @ # $ %           ",
"      & * = - ; > , ' ) !       ",
"    ~ { ] ^ / ( _ : < [ } |     ",
"  & * 1 2 3 4 5 6 7 8 9 0 a b   ",
"  c d e f g h i j k l m n o p   ",
"q r s t u v w x y z A B C D E F ",
"G H I J K L M N O P Q R S T U V ",
"W X 6 Y Z `  ...+.@.#.$.%.&.*.=.",
"-.;.>.,.'.).!.~.{.].^./.(._.:.<.",
"[.}.|.1.2.3.4.5.6.7.8.9.0.a.b.% ",
"c.d.e.f.g.h.i.j.k.l.m.n.o.p.q.r.",
"  s.t.u.v.w.x.y.z.A.B.C.D.E.F.  ",
"  G.H.I.J.K.L.M.N.O.P.Q.R.S.T.  ",
"    U.V.W.X.Y.Z.`. +.+++@+#+    ",
"      $+%+&+*+=+-+;+>+F.,+      ",
"          '+)+!+~+% {+          "};
