/* XPM */
static char *statusquo32[] = {
/* columns rows colors chars-per-pixel */
"32 32 94 2 ",
"   c #030303",
".  c #141414",
"X  c #191919",
"o  c #252424",
"O  c #2F2E2E",
"+  c #333333",
"@  c #3C3B3B",
"#  c #434343",
"$  c #4C4C4C",
"%  c #555555",
"&  c #5D5C5C",
"*  c #676767",
"=  c #686767",
"-  c #6B6B6B",
";  c #7B7B7B",
":  c #8A8579",
">  c #8C897E",
",  c #838383",
"<  c #8B8B8B",
"1  c #9C9688",
"2  c #949494",
"3  c #9C9C9C",
"4  c #A69F89",
"5  c #A09F9F",
"6  c #AAA28A",
"7  c #A6A194",
"8  c #A0A09F",
"9  c #A9A69B",
"0  c #B5AC94",
"q  c #BEB397",
"w  c #BBB39C",
"e  c #9F9FA0",
"r  c #A3A2A2",
"t  c #ACACAC",
"y  c #BDB5A3",
"u  c #B3B2AD",
"i  c #BEBAAE",
"p  c #AEAFB0",
"a  c #B4B4B4",
"s  c #BBBAB6",
"d  c #BBBBBB",
"f  c #C5B693",
"g  c #C6BB9D",
"h  c #C8BF9E",
"j  c #C2BCAE",
"k  c #C0BFBE",
"l  c #D3C29A",
"z  c #CEC0A1",
"x  c #D4CBAA",
"c  c #DBCDAE",
"v  c #C6C1B6",
"b  c #C4C3BC",
"n  c #C9C4B8",
"m  c #CECABB",
"M  c #D4CAB1",
"N  c #DDCEB0",
"B  c #D1CCBF",
"V  c #DBD1B6",
"C  c #DBD3BA",
"Z  c #E2D5B4",
"A  c #F3E3BB",
"S  c #C4C4C4",
"D  c #C9C7C3",
"F  c #CCCAC3",
"G  c #C7C7C8",
"H  c #CCCCCB",
"J  c #D2CEC4",
"K  c #D0CFCE",
"L  c #DDD8C0",
"P  c #D2D0CB",
"I  c #D4D4D4",
"U  c #DBD9D5",
"Y  c #DADADA",
"T  c #E1DBC1",
"R  c #EADDC1",
"E  c #E7DFC9",
"W  c #EDE6CB",
"Q  c #F5E7C6",
"!  c #F0E6CB",
"~  c #F5E9CD",
"^  c #EAE6DA",
"/  c #F5ECD2",
"(  c #E4E4E4",
")  c #EDE9E1",
"_  c #ECECEC",
"`  c #F2EEE7",
"'  c #F7F1E2",
"]  c #F5F3ED",
"[  c #F3F3F3",
"{  c #FAF9F6",
"}  c #F7F7F8",
"|  c #F7F8F8",
" . c #FBFBFB",
".. c None",
/* pixels */
"................................................................",
"..............................[ ] _ ............................",
"......................{  . .| W ! ( ( Y I I ....................",
".................. ./ / | _ U n v H H I P x b d ................",
".............. . . .^ y t t t a u r 3 2 7 w d d d ..............",
"............' { } G r S ( [ [ [ ( ( I k 3 < 3 a a s ............",
".......... .A W a a _ | } [ _ ( ( Y I H S a 2 < u h i ..........",
"........ . .^ 5 H | | [ [ ( ( Y Y K H G S d d 3 : w d d ........",
"........ .| p H | | [ _ _ ( ( Y K G S d d d d d 3 < d b d ......",
"...... . .D a [ | [ [ _ _ Y I I H G d d d d a a S 2 8 S S ......",
"......Q ^ r ( } | [ _ _ Y Y P a , , e d a d d d S d < d m b ....",
"....{ ~ j d [ } } _ ( a S I p # o + - e d d d k S H r 6 x F ....",
".... .} t Y [ [ _ ( Y * & d ; o + 2 a a d k k S G H k 2 H H ....",
".... .( t _ [ _ ( Y I & o & & o % a d d d S G G H P H 2 H I ....",
"....{ I t _ _ ( Y G t % O + @ + % a d d d r a H K I I 3 S Y ....",
"..] Z n t ( ( H a 2 & , 2 < - @ $ t k S p $ 3 d S I Y 8 s Z K ..",
"..) Z i t ( I G G e = a d d p & $ & * * % & e d K Y Y e s L H ..",
"....( S e Y I H G d a a d d a - @ # + X + k I I Y Y Y e S Y ....",
"....Y G 2 H H S d d a d a d a $ . & 2 O @ H Y Y Y Y K 2 K Y ....",
"....I H 2 d G S d d d a p e * .   ; K 2 = K Y Y I I S e Y Y ....",
"....J l 4 e S S d a d d p - o . % k K I G Y Y I I I r 0 T I ....",
"......j p , a S G S k d k k a a G I I Y Y Y Y I I H 2 J C ......",
"......d d e 2 k G G G G G G H K I I Y Y I Y I I I r a Y I ......",
"........a a < e G G H G H H H I I I I I I I I I t r Y Y ........",
"........d s w > r G H H K I K I Y I I I I I I p 1 P Y I ........",
"..........y f u < 2 k K K I I Y I I K K Y G e e x Z I ..........",
"............s k k r < r k K I I I I K S r 2 a Y U B ............",
"..............d S D h 9 2 2 e r e e 3 3 0 J Y Y I ..............",
"..................v z P I H S i s S I Y c C I ..................",
"......................H I I Y N N Y Y I J ......................",
"..............................F F ..............................",
"................................................................"
};
