/* XPM */
static char *statusquo64[] = {
/* columns rows colors chars-per-pixel */
"64 64 157 2 ",
"   c #010101",
".  c #0C0B0B",
"X  c #151515",
"o  c #1C1C1C",
"O  c #242424",
"+  c #282727",
"@  c #2B2B2B",
"#  c #343434",
"$  c #383737",
"%  c #3C3B3B",
"&  c #444444",
"*  c #4B4A4A",
"=  c #535353",
"-  c #5B5B5B",
";  c #636363",
":  c #6C6A66",
">  c #6C6C6C",
",  c #7D7766",
"<  c #74716B",
"1  c #7B776A",
"2  c #737373",
"3  c #7B7975",
"4  c #7B7B7B",
"5  c #95886C",
"6  c #908B7A",
"7  c #9B937D",
"8  c #A69B7C",
"9  c #B7A477",
"0  c #CEB377",
"q  c #C9B57F",
"w  c #D5BA7B",
"e  c #858585",
"r  c #8C8C8C",
"t  c #939393",
"y  c #9B9B9B",
"u  c #A09F9F",
"i  c #B9AE88",
"p  c #A6A193",
"a  c #ABA594",
"s  c #AFA897",
"d  c #ACA89C",
"f  c #B3A991",
"g  c #A4A4A4",
"h  c #ABABAB",
"j  c #BAB6AC",
"k  c #AFB0B1",
"l  c #B4B4B5",
"z  c #B9B7B2",
"x  c #BAB9B4",
"c  c #B7B8B9",
"v  c #BBBBBB",
"b  c #C9B685",
"n  c #C3B08A",
"m  c #D0B781",
"M  c #D8BF86",
"N  c #D1BD88",
"B  c #C7B691",
"V  c #C2B79F",
"C  c #C9BF9C",
"Z  c #C4BB9B",
"A  c #D0BD93",
"S  c #C6BFA4",
"D  c #C2BCAE",
"F  c #C1BEB1",
"G  c #C0BFBB",
"H  c #CFC28E",
"J  c #D7C386",
"K  c #D3C18C",
"L  c #DDC489",
"P  c #DCCA8D",
"I  c #CAC19F",
"U  c #D4C395",
"Y  c #DAC592",
"T  c #DECC93",
"R  c #D4C59D",
"E  c #DFCC9C",
"W  c #DBD09D",
"Q  c #E1C786",
"!  c #E3C689",
"~  c #E6CE8D",
"^  c #E9CE8D",
"/  c #E3CB94",
"(  c #EAD295",
")  c #E5D49B",
"_  c #EED69E",
"`  c #EFD89C",
"'  c #CBC2AC",
"]  c #D4C9A4",
"[  c #DACAA2",
"{  c #D1C6AD",
"}  c #D3CDAE",
"|  c #D8CCAA",
" . c #DED5AD",
".. c #C6C1B3",
"X. c #CCC3B0",
"o. c #CEC9B6",
"O. c #C1C0BC",
"+. c #CCC9BC",
"@. c #D2CBB4",
"#. c #DACDB6",
"$. c #D2CCBB",
"%. c #DFD3B3",
"&. c #DCD4BC",
"*. c #E0CEA5",
"=. c #E8D9A6",
"-. c #E0D0AD",
";. c #ECDCAC",
":. c #F2DBAA",
">. c #E4D9B2",
",. c #E8DDB6",
"<. c #E4DABC",
"1. c #E9DBBE",
"2. c #F1DFB2",
"3. c #EFE2AF",
"4. c #EBE2BB",
"5. c #BFBFC0",
"6. c #BFC0C1",
"7. c #C3C3C3",
"8. c #CAC7C1",
"9. c #CCCAC5",
"0. c #C7C7C8",
"q. c #CCCCCC",
"w. c #D0CEC5",
"e. c #D0CFCC",
"r. c #DBD6C1",
"t. c #DFD8C1",
"y. c #D3D2CE",
"u. c #DAD5CB",
"i. c #DFDBCE",
"p. c #CECFD0",
"a. c #D4D4D4",
"s. c #DAD7D0",
"d. c #DBD9D4",
"f. c #DBDBDB",
"g. c #E4DBC2",
"h. c #E7DFC9",
"j. c #EDE4C3",
"k. c #ECE3CB",
"l. c #F4EACD",
"z. c #E3E1DD",
"x. c #F6EAD1",
"c. c #F9EED2",
"v. c #F2EFDE",
"b. c #E4E4E4",
"n. c #ECEBE6",
"m. c #ECECEC",
"M. c #F0EDE7",
"N. c #F1EEE9",
"B. c #F9F3E4",
"V. c #F3F2ED",
"C. c #FBF7EE",
"Z. c #F3F3F3",
"A. c #F9F7F1",
"S. c #FBF9F5",
"D. c #F7F7F8",
"F. c #FBFBFB",
"G. c None",
/* pixels */
"G.G.G.G.G.G.G.G.G.G.G.G.G.G.G.G.G.G.G.G.G.G.G.G.G.G.G.G.G.G.G.G.G.G.G.G.G.G.G.G.G.G.G.G.G.G.G.G.G.G.G.G.G.G.G.G.G.G.G.G.G.G.G.G.",
"G.G.G.G.G.G.G.G.G.G.G.G.G.G.G.G.G.G.G.G.G.G.G.G.G.G.G.G.G.G.G.G.G.G.G.G.G.G.G.G.G.G.G.G.G.G.G.G.G.G.G.G.G.G.G.G.G.G.G.G.G.G.G.G.",
"G.G.G.G.G.G.G.G.G.G.G.G.G.G.G.G.G.G.G.G.G.G.G.G.G.G.G.G.G.G.G.G.G.G.G.G.G.G.G.G.G.G.G.G.G.G.G.G.G.G.G.G.G.G.G.G.G.G.G.G.G.G.G.G.",
"G.G.G.G.G.G.G.G.G.G.G.G.G.G.G.G.G.G.G.G.G.G.G.G.G.G.F.F.F.D.D.C.V.Z.m.m.m.n.G.G.G.G.G.G.G.G.G.G.G.G.G.G.G.G.G.G.G.G.G.G.G.G.G.G.",
"G.G.G.G.G.G.G.G.G.G.G.G.G.G.G.G.G.G.G.G.G.G.F.F.F.F.F.F.F.D.V.;.3.n.n.m.b.b.f.f.f.a.G.G.G.G.G.G.G.G.G.G.G.G.G.G.G.G.G.G.G.G.G.G.",
"G.G.G.G.G.G.G.G.G.G.G.G.G.G.G.G.G.G.G.G.F.F.C.D.F.F.F.D.D.Z.1.>.,.g.m.b.b.f.f.f.a.a.p.p.G.G.G.G.G.G.G.G.G.G.G.G.G.G.G.G.G.G.G.G.",
"G.G.G.G.G.G.G.G.G.G.G.G.G.G.G.G.G.G.F.F.C.2.,.A.F.F.F.D.D.Z.V.k.h.m.b.b.f.f.f.a.p.p.@.o.8.0.G.G.G.G.G.G.G.G.G.G.G.G.G.G.G.G.G.G.",
"G.G.G.G.G.G.G.G.G.G.G.G.G.G.G.G.F.F.F.F.F.` =.v.F.F.Z.n.a.7.c s p k v 0.p.a.a.a.p.9.Y U ..5.O.5.G.G.G.G.G.G.G.G.G.G.G.G.G.G.G.G.",
"G.G.G.G.G.G.G.G.G.G.G.G.G.G.G.F.F.F.F.F.F.c.~ n.p.h r 2 2 2 4 4 4 3 2 > 2 4 t k 0.@.w Z O.v v v v G.G.G.G.G.G.G.G.G.G.G.G.G.G.G.",
"G.G.G.G.G.G.G.G.G.G.G.G.G.F.F.F.F.F.F.F.F.b.p 4 2 e g 6.a.b.b.b.b.f.p.7.k t 4 > 2 5 f O.5.v v v c c c G.G.G.G.G.G.G.G.G.G.G.G.G.",
"G.G.G.G.G.G.G.G.G.G.G.G.F.S.F.F.F.F.F.m.h 2 6 h a.Z.F.F.D.m.m.m.m.b.b.b.z.f.q.l t 2 > e l v v c c c c z G.G.G.G.G.G.G.G.G.G.G.G.",
"G.G.G.G.G.G.G.G.G.G.G.F.A.j.S.F.F.F.6.4 4 c b.F.F.D.Z.Z.Z.Z.V.m.m.b.b.f.a.a.a.p.9.c t 2 > t c v c c c c l G.G.G.G.G.G.G.G.G.G.G.",
"G.G.G.G.G.G.G.G.G.G.F.F.:.( j.F.V.u 2 g b.F.D.D.D.D.D.D.V.m.m.b.b.f.f.f.a.p.q.9.0.0.7.h e > 4 l c c D I z l G.G.G.G.G.G.G.G.G.G.",
"G.G.G.G.G.G.G.G.G.F.F.F.B.( :.b.e 4 0.D.D.Z.D.F.F.D.Z.m.m.m.b.b.b.f.f.f.a.p.q.0.7.5.6.O.l y > 2 h D K K ' x l G.G.G.G.G.G.G.G.G.",
"G.G.G.G.G.G.G.G.G.F.F.F.F.B.Y 4 r f.F.D.D.F.F.D.D.m.m.m.b.b.b.f.f.f.a.a.q.a.0.7.7.v v v v v g 4 > 9 b Z x v v G.G.G.G.G.G.G.G.G.",
"G.G.G.G.G.G.G.G.F.F.F.F.F.b.3 r b.F.Z.F.F.D.Z.Z.m.m.b.m.b.b.f.f.f.a.p.p.q.q.0.0.0.5.v v v v v g 3 : h x v v 5.v G.G.G.G.G.G.G.G.",
"G.G.G.G.G.G.G.F.F.F.F.F.Z.e r b.F.Z.F.F.Z.Z.V.m.m.m.b.b.b.b.f.f.a.p.q.9.0.7.7.6.v v 5.v c c v 6.g 3 2 l v 5.5.5.c G.G.G.G.G.G.G.",
"G.G.G.G.G.G.G.F.F.F.F.F.g 4 f.D.Z.F.F.Z.Z.m.Z.m.m.m.m.b.f.f.f.a.p.p.0.0.O.5.v v v v v c v c v 8.0.g > e v 5.O.7.5.G.G.G.G.G.G.G.",
"G.G.G.G.G.G.F.F.F.F.F.7.2 0.D.m.D.F.F.D.m.Z.m.m.m.m.b.b.f.a.a.p.q.9.0.O.5.5.v v c c z v z c c c 0.7.y > y 7.7.7.0.v G.G.G.G.G.G.",
"G.G.G.G.G.G.F.F.F.F.m.4 g Z.m.Z.F.Z.m.m.Z.Z.m.m.b.b.f.f.f.a.p.q.0.7.7.5.v v v x c c c c c k l v 6.q.6.e > c 7.7.7.7.G.G.G.G.G.G.",
"G.G.G.G.G.F.c.B.D.F.h 4 m.m.m.F.F.D.m.Z.V.m.m.b.b.z.f.a.a.p.q.q.7.c c v 5.v c c c x c c c l l v 5.7.q.k < r 0.0.0.q.5.G.G.G.G.G.",
"G.G.G.G.G.S.:.=.l.m.2 l D.m.D.F.D.D.Z.m.m.m.m.b.z.f.a.a.p.q.7.r - % & - e k c c c c v x x c v v 5.7.q.0.t > c 9.@.} 8.G.G.G.G.G.",
"G.G.G.G.F.A.:.^ ` d 4 m.m.m.F.D.D.Z.m.m.m.m.f.a.f.a.a.p.q.6.> + O o o O @ = t z c c v v v 5.5.5.7.7.0.q.c 2 7 J P W $.v G.G.G.G.",
"G.G.G.G.F.F.F.C.g.< h D.m.D.F.D.D.m.m.m.b.b.6.; c a.q.q.0.e O O O + + * 4 e r h c c v v v 5.5.6.7.7.0.p.q.r < ' ] o.w.0.G.G.G.G.",
"G.G.G.G.F.F.F.F.p.2 f.Z.m.D.Z.Z.m.m.m.m.b.f.g + * k q.0.v * O + + + - h c x v c v v v 5.G 5.7.7.7.0.9.p.p.k > c p.a.a.q.G.G.G.G.",
"G.G.G.G.F.D.D.F.g e m.m.Z.Z.Z.m.m.m.b.f.f.f.r + O & h 0.g # O + + & h c c c c v v v v 5.5.6.7.7.0.9.q.q.p.6.3 t a.p.a.a.G.G.G.G.",
"G.G.G.F.F.D.Z.V.e g D.m.Z.Z.m.m.m.b.b.f.f.f.e O @ O & h u # + @ @ 2 v c x c c v v 5.5.6.7.7.7.0.0.p.p.p.a.p.r e p.a.a.a.7.G.G.G.",
"G.G.G.F.D.D.Z.b.4 5.Z.b.Z.m.m.m.b.b.f.f.a.a.e O @ @ O & e $ @ @ @ 4 v c v v v v G 5.5.O.7.0.0.9.q.q.p.p.a.p.g 2 q.a.a.a.0.G.G.G.",
"G.G.G.D.D.Z.Z.a.2 p.m.m.m.m.m.b.f.f.f.a.a.a.r + + # # @ % $ @ # # > x c v v v 5.6.5.v 0.0.0.9.q.q.p.p.y.f.a.k > 6.a.a.f.q.G.G.G.",
"G.G.G.D.Z.V.N.5.2 f.m.m.m.m.b.b.f.f.a.7.g r - O O # $ $ % $ # $ # ; v v v v v 5.O.v y t r v p.p.p.a.a.a.a.f.5.> c d.f.f.q.G.G.G.",
"G.G.G.Z.m.1.m.l 4 f.m.b.b.b.b.f.p.g 4 ; - $ = 4 4 2 > - * % # % % = k v v 5.5.6.7.c * o = 7.p.p.p.7.q.a.f.a.7.2 k f.&.i.a.G.G.G.",
"G.G.G.N./ *.h.s 4 z.b.b.b.f.p.h t t h c e % g 7.v v v l k e % % & * u 5.5.7.6.8.0.h O * 5.q.v h g 5.a.d.d.f.0.2 s &.>.;.y.G.G.G.",
"G.G.G.m.! E <.u 4 f.b.f.z.q.c G q.e.q.e @ & l v v c x c v h = & & * : e t u g g h > O 2 2 2 e h q.a.f.f.f.f.0.2 p r. . .y.G.G.G.",
"G.G.G.m.z.-.z.k 4 f.f.f.f.a.a.p.q.0.v 2 > 4 z c c c c c c c 2 * * * & $ # @ + O X O & 2 y v a.f.f.a.a.f.f.f.0.2 l z.&.d.a.G.G.G.",
"G.G.G.n.b.z.f.l 2 0.f.f.d.a.e.q.0.7.7.5.5.k z c c x c c c v e * * & % # @ @ @ X   - q.a.a.a.a.a.a.f.f.f.f.f.5.> l f.f.f.a.G.G.G.",
"G.G.G.b.z.f.f.5.> 5.f.p.a.p.q.0.7.7.5.v v c c c c c v c x v r * & @ # 4 % @ @ o   = p.a.a.a.f.a.f.f.f.f.f.a.l 2 0.f.f.f.q.G.G.G.",
"G.G.G.b.f.f.f.0.2 h a.p.q.q.0.0.7.5.v v v c c x c c c v v v 4 $ + o X y g & + O . * a.a.a.a.f.a.f.f.f.a.a.f.g 2 a.f.f.f.0.G.G.G.",
"G.G.G.z.d.f.a.p.4 t a.q.q.0.7.O.5.v v v c c c c c x x v v c = o X . . y p.g & + X = a.a.f.a.f.f.f.f.f.a.a.a.t e f.f.f.f.7.G.G.G.",
"G.G.G.G.d.a.p.p.r 4 7.q.0.0.7.5.v v c c c x x c c c v 5.v 4 o X .   o c q.p.g * o > a.a.f.a.f.f.f.a.a.a.a.q.4 u f.f.f.a.G.G.G.G.",
"G.G.G.G.a.p.q.p.h > h q.0.0.7.5.v c c v c c c c h t y t ; o .       = q.q.p.a.k & t f.f.f.f.f.f.f.a.a.a.a.l > 6.b.f.f.a.G.G.G.G.",
"G.G.G.G.a.$.{ R D < t 7.7.7.7.5.G v c c v c x v c t & o .         @ l q.q.a.a.a.v 0.f.f.f.f.f.f.a.a.a.a.a.t , &.d.f.f.q.G.G.G.G.",
"G.G.G.G.p.X.w w M 6 2 l 7.7.7.7.7.5.v c c c v v v G h 2 # X . o - l q.a.p.a.a.a.f.f.a.f.f.f.f.a.a.a.a.a.7.< u ~ ) <.d.6.G.G.G.G.",
"G.G.G.G.G.0.B S v k : r G 7.7.7.7.7.7.G v c v v 5.5.7.7.v h g l q.q.q.a.a.a.a.a.f.f.f.f.f.a.a.a.a.a.a.a.y 2 p.>.)  .y.G.G.G.G.G.",
"G.G.G.G.G.7.5.5.5.G e 2 h 5.7.7.7.7.7.0.7.5.5.G v G 7.7.0.0.q.q.q.q.a.a.a.a.f.a.f.f.f.a.a.a.a.a.a.a.a.G 2 u f.d.u.r.0.G.G.G.G.G.",
"G.G.G.G.G.G.7.v v v k > e l 7.0.0.7.0.7.0.0.0.7.7.7.7.0.0.q.q.q.a.a.a.a.a.d.f.f.a.a.a.a.a.a.a.a.a.a.a.r 4 a.f.f.f.a.G.G.G.G.G.G.",
"G.G.G.G.G.G.G v v c v t : y G 7.0.0.0.9.0.0.0.q.0.0.0.0.0.q.q.q.q.a.a.f.f.f.f.a.f.a.a.f.f.a.a.a.a.a.h > l f.f.f.f.0.G.G.G.G.G.G.",
"G.G.G.G.G.G.G.v v c c l 4 2 u 5.9.0.0.q.q.0.0.e.q.q.q.q.e.p.e.a.a.a.a.a.a.f.a.f.a.a.a.a.a.a.a.a.a.c 2 t f.f.f.f.a.G.G.G.G.G.G.G.",
"G.G.G.G.G.G.G.v c c c c k 2 3 h 7.0.0.q.0.0.q.0.q.q.q.q.q.a.a.p.a.a.a.a.a.a.a.a.a.a.a.a.a.a.a.a.7.4 e a.f.f.f.f.7.G.G.G.G.G.G.G.",
"G.G.G.G.G.G.G.G.v c c c x h < 4 h 7.0.q.q.q.q.q.q.p.p.p.a.p.a.a.f.a.a.f.d.a.a.a.a.a.a.a.a.a.a.6.4 3 p.f.f.f.f.q.G.G.G.G.G.G.G.G.",
"G.G.G.G.G.G.G.G.G.l v x B K i > 4 g 7.0.q.q.q.q.p.d.a.a.a.p.a.a.a.a.a.a.a.a.q.a.a.a.a.a.a.a.v 4 3 N i.f.f.f.a.G.G.G.G.G.G.G.G.G.",
"G.G.G.G.G.G.G.G.G.G.z n 0 b j h 2 2 y 7.0.q.e.e.p.a.a.p.a.a.f.a.a.a.d.a.p.p.q.p.a.a.a.a.a.h 2 e q./ ) h.f.a.v G.G.G.G.G.G.G.G.G.",
"G.G.G.G.G.G.G.G.G.G.l j n j v 5.l e > e l 0.q.p.e.q.a.a.a.a.a.a.f.a.p.a.q.a.a.a.a.a.a.5.r > t f.f.] T %.a.7.G.G.G.G.G.G.G.G.G.G.",
"G.G.G.G.G.G.G.G.G.G.G.l c v v 7.G 5.y 2 2 t v q.a.p.p.a.a.a.a.a.p.a.a.a.a.a.a.a.a.7.y 2 2 l f.f.f.s.| u.O.G.G.G.G.G.G.G.G.G.G.G.",
"G.G.G.G.G.G.G.G.G.G.G.G.z v v O.7.5.0.v t > 2 t k 0.a.a.a.a.d.a.a.a.a.f.f.a.0.l t 2 2 g a.f.f.f.f.f.a.v G.G.G.G.G.G.G.G.G.G.G.G.",
"G.G.G.G.G.G.G.G.G.G.G.G.G.G.v 0.7.7.0.0.9.S 7 2 > 4 r g l 5.0.7.7.7.5.l g t 4 > 4 8 9.f.f.f.f.f.f.a.v G.G.G.G.G.G.G.G.G.G.G.G.G.",
"G.G.G.G.G.G.G.G.G.G.G.G.G.G.G.v 7.0.0.8.A J o.q.l y e 2 > 2 2 2 2 2 2 > 2 e u 7.u.Q r.f.f.f.f.f.q.G.G.G.G.G.G.G.G.G.G.G.G.G.G.G.",
"G.G.G.G.G.G.G.G.G.G.G.G.G.G.G.G.v 7.0.' m N e.p.a.a.a.p.7.c k s a l v 0.a.f.z.f.#.M / f.f.f.a.7.G.G.G.G.G.G.G.G.G.G.G.G.G.G.G.G.",
"G.G.G.G.G.G.G.G.G.G.G.G.G.G.G.G.G.G.5...' X.p.a.a.a.a.a.d.f.d.r.&.f.f.f.f.f.f.f.u.U [ d.a.0.G.G.G.G.G.G.G.G.G.G.G.G.G.G.G.G.G.G.",
"G.G.G.G.G.G.G.G.G.G.G.G.G.G.G.G.G.G.G.G.5.q.p.a.a.d.a.f.d.f.[ / E &.f.f.f.f.f.f.d.$.q.0.G.G.G.G.G.G.G.G.G.G.G.G.G.G.G.G.G.G.G.G.",
"G.G.G.G.G.G.G.G.G.G.G.G.G.G.G.G.G.G.G.G.G.G.v 0.p.a.a.f.f.f.s.L A s.f.f.f.f.f.a.0.7.G.G.G.G.G.G.G.G.G.G.G.G.G.G.G.G.G.G.G.G.G.G.",
"G.G.G.G.G.G.G.G.G.G.G.G.G.G.G.G.G.G.G.G.G.G.G.G.G.G.7.0.q.y.a.e.q.a.q.q.0.7.G.G.G.G.G.G.G.G.G.G.G.G.G.G.G.G.G.G.G.G.G.G.G.G.G.G.",
"G.G.G.G.G.G.G.G.G.G.G.G.G.G.G.G.G.G.G.G.G.G.G.G.G.G.G.G.G.G.G.G.G.G.G.G.G.G.G.G.G.G.G.G.G.G.G.G.G.G.G.G.G.G.G.G.G.G.G.G.G.G.G.G.",
"G.G.G.G.G.G.G.G.G.G.G.G.G.G.G.G.G.G.G.G.G.G.G.G.G.G.G.G.G.G.G.G.G.G.G.G.G.G.G.G.G.G.G.G.G.G.G.G.G.G.G.G.G.G.G.G.G.G.G.G.G.G.G.G.",
"G.G.G.G.G.G.G.G.G.G.G.G.G.G.G.G.G.G.G.G.G.G.G.G.G.G.G.G.G.G.G.G.G.G.G.G.G.G.G.G.G.G.G.G.G.G.G.G.G.G.G.G.G.G.G.G.G.G.G.G.G.G.G.G."
};
