/* XPM */
static char * statusquo32_xpm[] = {
"32 32 687 2",
"  	c None",
". 	c #FCFCFC",
"+ 	c #F9F9F9",
"@ 	c #F7F4EB",
"# 	c #F2F0E9",
"$ 	c #EDEDED",
"% 	c #E8E8E8",
"& 	c #E2E2E2",
"* 	c #FDFBF8",
"= 	c #F9F7F0",
"- 	c #FDFDFE",
"; 	c #F6F6F7",
"> 	c #E6DABD",
", 	c #EBDFAF",
"' 	c #E6E7E9",
") 	c #E1E1E1",
"! 	c #DBDBDB",
"~ 	c #D5D5D5",
"{ 	c #D1D1D1",
"] 	c #CCCDCF",
"^ 	c #FDFDFD",
"/ 	c #FDFEFF",
"( 	c #E8CB7B",
"_ 	c #F5F4EE",
": 	c #F9F9FA",
"< 	c #F5F5F7",
"[ 	c #EEEEED",
"} 	c #EAE8E2",
"| 	c #E2DCCC",
"1 	c #DFDFDE",
"2 	c #DBDBDD",
"3 	c #D5D5D6",
"4 	c #CFD0D0",
"5 	c #D0CABB",
"6 	c #D3C99B",
"7 	c #C1C1C0",
"8 	c #BEBEBE",
"9 	c #FCFCFD",
"0 	c #F5EACF",
"a 	c #F7F7F3",
"b 	c #E8DBAE",
"c 	c #EAD17D",
"d 	c #F9DC7C",
"e 	c #FADC7B",
"f 	c #FADA7A",
"g 	c #F6D574",
"h 	c #E6C873",
"i 	c #D5C59A",
"j 	c #CBCAC6",
"k 	c #D2B36F",
"l 	c #BDBDBB",
"m 	c #BDBDBD",
"n 	c #BABABA",
"o 	c #B8B8B8",
"p 	c #FBF6E5",
"q 	c #FBFBFA",
"r 	c #F2EFE2",
"s 	c #F0D982",
"t 	c #FBE082",
"u 	c #F4D679",
"v 	c #F4D578",
"w 	c #F9DB7D",
"x 	c #F8D97A",
"y 	c #F7D678",
"z 	c #F6D475",
"A 	c #F1CD6E",
"B 	c #EFC767",
"C 	c #F3CB6C",
"D 	c #E7C26A",
"E 	c #BDB9B2",
"F 	c #B7B7B7",
"G 	c #F0CA75",
"H 	c #EBE6D4",
"I 	c #FEFFFF",
"J 	c #EDDC9A",
"K 	c #FADF82",
"L 	c #F6D87C",
"M 	c #FADD80",
"N 	c #F9DD7F",
"O 	c #F8DB7C",
"P 	c #F4D274",
"Q 	c #EEC96A",
"R 	c #F7D576",
"S 	c #F1CB6C",
"T 	c #F4CE6E",
"U 	c #F3CB6B",
"V 	c #F1C868",
"W 	c #EEC261",
"X 	c #EEC05F",
"Y 	c #D4B472",
"Z 	c #B7B8B9",
"` 	c #B5B6BB",
" .	c #D4C798",
"..	c #C0BEB5",
"+.	c #F3E3B3",
"@.	c #F3DE8F",
"#.	c #F6DA7C",
"$.	c #FADE80",
"%.	c #FBDF81",
"&.	c #ECCA6D",
"*.	c #E8C05D",
"=.	c #EECB6E",
"-.	c #F5D171",
";.	c #EEC869",
">.	c #E8BC5A",
",.	c #EFC868",
"'.	c #E6BB5A",
").	c #E4BA5D",
"!.	c #EDC261",
"~.	c #EFC160",
"{.	c #EDBE5D",
"].	c #EAB753",
"^.	c #DFB461",
"/.	c #C0AF88",
"(.	c #BDB598",
"_.	c #BBBBBB",
":.	c #F4DF90",
"<.	c #F2D374",
"[.	c #F5D678",
"}.	c #F2CE6E",
"|.	c #EDC868",
"1.	c #F4D072",
"2.	c #F3CF6F",
"3.	c #F4CD6E",
"4.	c #F1C767",
"5.	c #EDC262",
"6.	c #EABF61",
"7.	c #E2B759",
"8.	c #EBBE5F",
"9.	c #EBBE5E",
"0.	c #EBB756",
"a.	c #E7B04A",
"b.	c #DAAA59",
"c.	c #BABBBE",
"d.	c #BFBFBF",
"e.	c #ECD997",
"f.	c #E7C05F",
"g.	c #F9DC7F",
"h.	c #F4D171",
"i.	c #E9C161",
"j.	c #F1CC6D",
"k.	c #F7D375",
"l.	c #F4D172",
"m.	c #F3CE6E",
"n.	c #F2C969",
"o.	c #F1C666",
"p.	c #EFC362",
"q.	c #EEC160",
"r.	c #EDBB5A",
"s.	c #E6BB5D",
"t.	c #E7BF65",
"u.	c #E6B657",
"v.	c #E6AA47",
"w.	c #DDA037",
"x.	c #CFA86C",
"y.	c #BFC1C4",
"z.	c #C2C2C2",
"A.	c #C3C3C3",
"B.	c #FCF9F2",
"C.	c #F9F7F2",
"D.	c #F1ECDE",
"E.	c #F5D578",
"F.	c #F0D071",
"G.	c #F9DA7C",
"H.	c #E9C365",
"I.	c #F2CE6F",
"J.	c #F5D273",
"K.	c #F4CF70",
"L.	c #F4CD6D",
"M.	c #F2CA6A",
"N.	c #F0C361",
"O.	c #EFC05D",
"P.	c #EDBD59",
"Q.	c #ECBB57",
"R.	c #ECBA58",
"S.	c #EAB654",
"T.	c #E9B250",
"U.	c #E4AC49",
"V.	c #E1B75B",
"W.	c #E1A33E",
"X.	c #DE9B36",
"Y.	c #DC9628",
"Z.	c #C5B6A1",
"`.	c #C4C4C4",
" +	c #C7C7C9",
".+	c #FBF6EE",
"++	c #E8CA83",
"@+	c #F9F9F6",
"#+	c #EFD47A",
"$+	c #DCB455",
"%+	c #F8D87A",
"&+	c #F6D374",
"*+	c #F5D071",
"=+	c #F3CB6A",
"-+	c #F2C868",
";+	c #F1C565",
">+	c #F0C15F",
",+	c #F4DFB1",
"'+	c #F9FCFF",
")+	c #F6F9FF",
"!+	c #EEDCBA",
"~+	c #E9B960",
"{+	c #E7AF4C",
"]+	c #E5A945",
"^+	c #E3A43F",
"/+	c #E19E38",
"(+	c #DF9B34",
"_+	c #DD972F",
":+	c #D7942C",
"<+	c #D39948",
"[+	c #CCC6B7",
"}+	c #DBD0A6",
"|+	c #CECCC2",
"1+	c #FAFCFF",
"2+	c #EBDFB6",
"3+	c #F2CE70",
"4+	c #F5D475",
"5+	c #F5D172",
"6+	c #F4CE6F",
"7+	c #F3CC6D",
"8+	c #F1CB72",
"9+	c #E0D8C8",
"0+	c #F0C462",
"a+	c #EFC161",
"b+	c #F3D9A1",
"c+	c #F7F8F9",
"d+	c #F2F2F3",
"e+	c #E2DBCE",
"f+	c #DAAC5B",
"g+	c #DCAE60",
"h+	c #E4A641",
"i+	c #E1A13C",
"j+	c #E09C36",
"k+	c #DE9831",
"l+	c #DC942D",
"m+	c #DB9129",
"n+	c #D98E25",
"o+	c #D68E1F",
"p+	c #C5BDB2",
"q+	c #D4CAAA",
"r+	c #CDCDCC",
"s+	c #F7F7F8",
"t+	c #E5D4A2",
"u+	c #DCAE4E",
"v+	c #F4D070",
"w+	c #F3CD6D",
"x+	c #F2CA6B",
"y+	c #F3CF7F",
"z+	c #D5D6D7",
"A+	c #E7DECA",
"B+	c #EDBD5C",
"C+	c #F4F1EA",
"D+	c #EEEEEE",
"E+	c #DFE1E3",
"F+	c #E3AA46",
"G+	c #E4A844",
"H+	c #E2A33E",
"I+	c #E19E39",
"J+	c #DF9933",
"K+	c #DD962F",
"L+	c #DC922A",
"M+	c #DA9026",
"N+	c #DA8E23",
"O+	c #D98C22",
"P+	c #D38E24",
"Q+	c #D3A667",
"R+	c #D0D0D0",
"S+	c #D2D2D2",
"T+	c #FAFAFA",
"U+	c #F5F5F5",
"V+	c #E6C56A",
"W+	c #E0B95D",
"X+	c #F1C969",
"Y+	c #F0C666",
"Z+	c #F0C463",
"`+	c #F1CB7B",
" @	c #ECECED",
".@	c #DDDDDD",
"+@	c #EBE2D0",
"@@	c #E9E6E0",
"#@	c #D2C6B2",
"$@	c #E5A43C",
"%@	c #E2A03B",
"&@	c #E09B35",
"*@	c #DE9830",
"=@	c #DC942C",
"-@	c #DB9128",
";@	c #DA8E25",
">@	c #D98D22",
",@	c #D98C21",
"'@	c #D98D21",
")@	c #D89226",
"!@	c #D59B43",
"~@	c #D3D5D7",
"{@	c #CCCCCC",
"]@	c #F6F6F6",
"^@	c #E9E8E6",
"/@	c #F3CD6A",
"(@	c #EAC162",
"_@	c #F1C867",
":@	c #F0C564",
"<@	c #EFC15F",
"[@	c #EEBF5D",
"}@	c #F1D293",
"|@	c #F3F5F8",
"1@	c #E4E5E7",
"2@	c #E8E8E9",
"3@	c #E0E0E0",
"4@	c #C0BEBD",
"5@	c #E29C31",
"6@	c #DF9832",
"7@	c #DD952E",
"8@	c #DB9229",
"9@	c #CA8F3B",
"0@	c #D6953B",
"a@	c #DA8E21",
"b@	c #DB9221",
"c@	c #DA9525",
"d@	c #D99F39",
"e@	c #D5D7DC",
"f@	c #D7D7D8",
"g@	c #D9D9D9",
"h@	c #F1EEE5",
"i@	c #E1D6BF",
"j@	c #E4E3E1",
"k@	c #F1C966",
"l@	c #F0C767",
"m@	c #F0C665",
"n@	c #F0C25F",
"o@	c #E7CE97",
"p@	c #E4C68A",
"q@	c #EBC882",
"r@	c #E4D7BF",
"s@	c #E7B75D",
"t@	c #E5B25A",
"u@	c #E2AE5A",
"v@	c #D2B689",
"w@	c #C0C1C2",
"x@	c #ADB1B6",
"y@	c #D59334",
"z@	c #DC932B",
"A@	c #DB9027",
"B@	c #CFA974",
"C@	c #C0A783",
"D@	c #DA8B1C",
"E@	c #DC9429",
"F@	c #D99E3F",
"G@	c #DE9924",
"H@	c #DF9F28",
"I@	c #D9A236",
"J@	c #D7DBE4",
"K@	c #E1DCC6",
"L@	c #EBE6DA",
"M@	c #E2C88F",
"N@	c #DED7C5",
"O@	c #F1C462",
"P@	c #F0C464",
"Q@	c #EEC364",
"R@	c #ECC16A",
"S@	c #ECBB59",
"T@	c #EBBC5E",
"U@	c #E1DDD8",
"V@	c #DCB878",
"W@	c #E5AB48",
"X@	c #E2A13C",
"Y@	c #E29C32",
"Z@	c #A6A4A1",
"`@	c #939494",
" #	c #918778",
".#	c #AB9679",
"+#	c #C8AA80",
"@#	c #D6B484",
"##	c #D6D7D8",
"$#	c #D3B17E",
"%#	c #D49E4A",
"&#	c #DA9C34",
"*#	c #DF9C24",
"=#	c #E2A32A",
"-#	c #E3A92F",
";#	c #DAA839",
">#	c #D8D5CC",
",#	c #E0D5A8",
"'#	c #DAD9D6",
")#	c #E7E7E7",
"!#	c #DFE0E1",
"~#	c #D8D7D5",
"{#	c #EFC15C",
"]#	c #E4B557",
"^#	c #EDBD5B",
"/#	c #ECBA59",
"(#	c #EBB755",
"_#	c #E9B350",
":#	c #E7AB43",
"<#	c #E3AA4D",
"[#	c #E3A33E",
"}#	c #E09F38",
"|#	c #DE9A34",
"1#	c #DE952D",
"2#	c #958D81",
"3#	c #8C8C8C",
"4#	c #ACA08E",
"5#	c #C2C4C7",
"6#	c #D2D1D1",
"7#	c #D48C20",
"8#	c #DD931C",
"9#	c #DF9A24",
"0#	c #E1A028",
"a#	c #E3A72C",
"b#	c #E6AE30",
"c#	c #E3AD33",
"d#	c #E0B447",
"e#	c #DADCE1",
"f#	c #DADADB",
"g#	c #DCDCDC",
"h#	c #DADADA",
"i#	c #D4D4D6",
"j#	c #E0B357",
"k#	c #E1AF4E",
"l#	c #EAB756",
"m#	c #EAB553",
"n#	c #E7AF4D",
"o#	c #E6AA46",
"p#	c #E3A540",
"q#	c #E1A03B",
"r#	c #DF9C36",
"s#	c #DD9731",
"t#	c #DD942C",
"u#	c #DC9025",
"v#	c #A09990",
"w#	c #CAB496",
"x#	c #D59E50",
"y#	c #DBDEE2",
"z#	c #F0F0F2",
"A#	c #D49833",
"B#	c #E09E26",
"C#	c #E2A42A",
"D#	c #E5AC2E",
"E#	c #E7B132",
"F#	c #E8B535",
"G#	c #DFAE38",
"H#	c #E7C35B",
"I#	c #DBDBDE",
"J#	c #D3D3D3",
"K#	c #CDCECF",
"L#	c #CEB581",
"M#	c #E0AB4A",
"N#	c #DFA946",
"O#	c #E4A743",
"P#	c #E2A23D",
"Q#	c #E09E37",
"R#	c #DE9933",
"S#	c #DC942E",
"T#	c #DD9127",
"U#	c #DB8E22",
"V#	c #D59A48",
"W#	c #C6C7C8",
"X#	c #D5B88E",
"Y#	c #DC901C",
"Z#	c #DBA752",
"`#	c #E7E9EE",
" $	c #DB9E2B",
".$	c #E4A82D",
"+$	c #E7AF31",
"@$	c #E8B434",
"#$	c #E9B837",
"$$	c #E1B13A",
"%$	c #E0B23A",
"&$	c #E8D083",
"*$	c #CFCCC7",
"=$	c #CEC8B8",
"-$	c #C8C2B4",
";$	c #E3AA47",
">$	c #DDA23D",
",$	c #DC9F3A",
"'$	c #E09F39",
")$	c #DD9630",
"!$	c #D99029",
"~$	c #B2966E",
"{$	c #C5B8A7",
"]$	c #E0E0E1",
"^$	c #DDDEDF",
"/$	c #D59838",
"($	c #E3B04A",
"_$	c #E6AB2B",
":$	c #E7B233",
"<$	c #E9B735",
"[$	c #EBBB39",
"}$	c #E2B43B",
"|$	c #E1B53D",
"1$	c #E7BD3C",
"2$	c #DFD7BA",
"3$	c #DCDBD9",
"4$	c #CBC6BE",
"5$	c #D5B467",
"6$	c #B9B8B2",
"7$	c #DDA243",
"8$	c #DB9D37",
"9$	c #DB9A33",
"0$	c #DB982F",
"a$	c #DB952D",
"b$	c #DA8E26",
"c$	c #DA8D23",
"d$	c #D98C20",
"e$	c #D88D23",
"f$	c #D4B07D",
"g$	c #D1B383",
"h$	c #DA9625",
"i$	c #DF9C26",
"j$	c #E2A329",
"k$	c #E5AA2E",
"l$	c #E6B032",
"m$	c #E8B534",
"n$	c #EAB937",
"o$	c #E8B93A",
"p$	c #E3B63D",
"q$	c #E2B73E",
"r$	c #E2B841",
"s$	c #EBCF68",
"t$	c #DCD7CE",
"u$	c #E6D79A",
"v$	c #D6D5CD",
"w$	c #C5C5C5",
"x$	c #BCBCBC",
"y$	c #B9B0A2",
"z$	c #DC9931",
"A$	c #D9962C",
"B$	c #DA942A",
"C$	c #DA9327",
"D$	c #DB9125",
"E$	c #D98E23",
"F$	c #DB9121",
"G$	c #DC9622",
"H$	c #DF9A25",
"I$	c #E1A128",
"J$	c #E6AD30",
"K$	c #E8B333",
"L$	c #E9B836",
"M$	c #E9B939",
"N$	c #E3B63C",
"O$	c #E3B83E",
"P$	c #E4BA41",
"Q$	c #E3BB42",
"R$	c #EAC440",
"S$	c #E2DBC0",
"T$	c #DBDAD8",
"U$	c #C3C3C4",
"V$	c #B9B9B9",
"W$	c #CB9444",
"X$	c #DB9327",
"Y$	c #DA9225",
"Z$	c #D18F27",
"`$	c #DA9022",
" %	c #D99223",
".%	c #DB9422",
"+%	c #DE9824",
"@%	c #E4AB2F",
"#%	c #E9B635",
"$%	c #EBBA38",
"%%	c #E4B53B",
"&%	c #E3B73D",
"*%	c #E2BF52",
"=%	c #DDBB4E",
"-%	c #E5BE43",
";%	c #E4BE43",
">%	c #EBDA8C",
",%	c #DADBDD",
"'%	c #D8D8D8",
")%	c #D28D2E",
"!%	c #D99122",
"~%	c #D99123",
"{%	c #D49227",
"]%	c #D89324",
"^%	c #DA9624",
"/%	c #DB9A27",
"(%	c #DC9E2A",
"_%	c #DFA42E",
":%	c #E2AB31",
"<%	c #E4AF34",
"[%	c #E4B237",
"}%	c #E4B539",
"|%	c #E4B63C",
"1%	c #E5B93F",
"2%	c #E6C252",
"3%	c #E1BF4C",
"4%	c #E5BF45",
"5%	c #E3BE45",
"6%	c #F0D96D",
"7%	c #DBDBDC",
"8%	c #B7B8BB",
"9%	c #C3B696",
"0%	c #C5BB98",
"a%	c #D28F2F",
"b%	c #DA9222",
"c%	c #D99524",
"d%	c #D59628",
"e%	c #D59A2D",
"f%	c #D99E2C",
"g%	c #DEA630",
"h%	c #E0AA32",
"i%	c #E2AF35",
"j%	c #E4B338",
"k%	c #E3B439",
"l%	c #E4B83E",
"m%	c #E4BB43",
"n%	c #E7C351",
"o%	c #E5C046",
"p%	c #E4C046",
"q%	c #E4C146",
"r%	c #F1DA6E",
"s%	c #E5D3A3",
"t%	c #DADCDF",
"u%	c #BCB5A7",
"v%	c #C8B382",
"w%	c #CFA054",
"x%	c #DE9A1F",
"y%	c #DB9E2A",
"z%	c #DBA12E",
"A%	c #DEA734",
"B%	c #D9A636",
"C%	c #DCAA38",
"D%	c #DFAF38",
"E%	c #DCB041",
"F%	c #E0B747",
"G%	c #E0B845",
"H%	c #E1BD4C",
"I%	c #E4BE44",
"J%	c #E5C045",
"K%	c #ECCA44",
"L%	c #ECDD8C",
"M%	c #D7C69F",
"N%	c #E3D6A5",
"O%	c #D4D4D7",
"P%	c #BBBCBE",
"Q%	c #C0C0C0",
"R%	c #C2C5C9",
"S%	c #CABA99",
"T%	c #DDAE47",
"U%	c #E3AB2C",
"V%	c #E0AC33",
"W%	c #E0AF37",
"X%	c #E0B13B",
"Y%	c #E3B63B",
"Z%	c #E2B944",
"`%	c #E1B942",
" &	c #E2BB43",
".&	c #E6BF42",
"+&	c #EBC843",
"@&	c #EED76D",
"#&	c #E3DDBF",
"$&	c #DCDEE2",
"%&	c #D3CEC3",
"&&	c #C6C6C6",
"*&	c #C9C5BC",
"=&	c #D5CEAF",
"-&	c #D0C9B6",
";&	c #E1C46F",
">&	c #E6C256",
",&	c #E7C049",
"'&	c #E6C047",
")&	c #EBCB53",
"!&	c #EED464",
"~&	c #EEDC86",
"{&	c #E1DBC3",
"]&	c #D7CDB1",
"^&	c #C7C8CA",
"/&	c #D4C095",
"(&	c #CDC2A7",
"_&	c #D5D6D9",
":&	c #D7D9DE",
"<&	c #DADCE2",
"[&	c #DAD6CF",
"}&	c #DADBE1",
"|&	c #DADBDE",
"1&	c #D9D5CD",
"2&	c #E4CE8E",
"3&	c #C1C2C3",
"4&	c #D0D1D1",
"5&	c #D6D6D6",
"6&	c #D9DADC",
"7&	c #DDD1BA",
"8&	c #DED0A3",
"9&	c #DADBDC",
"0&	c #DBD9D5",
"a&	c #D2CDC5",
"b&	c #CFCFCF",
"c&	c #DBDBD9",
"d&	c #D9D7D3",
"                        . . + @ # $ % &                         ",
"                  * = - . + ; > , ' ) ! ~ { ]                   ",
"              ^ . / ( _ : < [ } | 1 2 3 4 5 6 7 8               ",
"            . . . 9 0 a b c d e f g h i j k l m n o             ",
"          p q . . r s t u v w x y z A B C D E n o o F           ",
"        . G H I J K L M N O P Q R S T U V W X Y Z `  ...        ",
"      . . 9 +.@.#.$.%.&.*.=.-.;.>.,.'.).!.~.{.].^./.(._.n       ",
"    ^ . . I :.<.$.[.}.|.}.1.2.3.U 4.5.6.7.8.9.0.a.b.c.m d.o     ",
"    . . . e.f.g.h.i.j.k.l.m.C n.o.p.q.{.r.s.t.u.v.w.x.y.z.A.    ",
"  B.C.. D.E.F.G.H.I.J.K.L.M.4.N.O.P.Q.R.S.T.U.V.W.X.Y.Z.`. +m   ",
"  .+++@+#+$+%+R &+*+T =+-+;+>+,+'+)+!+~+{+]+^+/+(+_+:+<+[+}+|+  ",
"  9 1+2+3+4+z 5+6+7+8+9+0+a+b+c+d+e+f+g+h+i+j+k+l+m+n+o+p+q+r+  ",
"^ + s+t+u+J.v+w+x+-+y+z+A+B+C+D+E+F+G+H+I+J+K+L+M+N+O+P+Q+R+S+d.",
"T+U+d+V+W+T U X+Y+Z+`+ @.@+@@@) #@$@%@&@*@=@-@;@>@,@'@)@!@~@~ {@",
"]@d+^@/@(@M._@:@<@[@}@|@1@2@3@{ 4@5@6@7@8@9@0@>@'@a@b@c@d@e@f@g@",
"h@i@j@k@l@m@n@o@p@q@r@s@t@u@v@w@x@y@z@A@N+B@C@D@E@F@G@H@I@J@K@! ",
"L@M@N@O@P@Q@R@S@T@U@V@W@h+X@Y@Z@`@ #.#+#@###$#%#&#*#=#-#;#>#,#'#",
")#!#~#{#]#^#/#(#_#:#<#[#}#|#1#2#3#4#5#6#E+7#8#9#0#a#b#c#d#e#f#g#",
") h#i#j#k#l#m#n#o#p#q#r#s#t#u#v#F w#x#y#z#A#B#C#D#E#F#G#H#I#! R+",
"! J#K#L#M#N#W@O#P#Q#R#S#T#U#V#W#g@X#Y#Z#`# $.$+$@$#$$$%$&$! ! A.",
"  *$=$-$;$>$,$'$(+)$z@!$~${$~@]$^$/$G@B#($_$:$<$[$}$|$1$2$3$!   ",
"  4$5$6$7$8$9$0$a$m+b$c$d$e$f$g$h$i$j$k$l$m$n$o$p$q$r$s$t$u$v$  ",
"  w$d.x$y$z$A$B$C$D$E$,@a@F$G$H$I$a#J$K$L$M$N$O$P$Q$R$S$! T$U$  ",
"    x$V$o W$X$Y$)@Z$`$ %.%+%B#C#@%E##%$%%%&%*%=%-%;%>%,%! '%    ",
"    n o o Z )%!%~%{%]%^%/%(%_%:%<%[%}%|%1%2%3%4%5%6%7%! g#8     ",
"      F 8%9%0%a%b%c%d%e%f%g%h%i%j%k%l%m%n%o%p%q%r%s%t%! {       ",
"        u%v%_.m w%x%y%z%A%B%C%D%E%F%G%H%I%J%K%L%7%M%N%O%        ",
"          P%8 Q%R%S%T%U%V%W%X%Y%Z%`% &.&+&@&#&,%! $&%&          ",
"            m A.&&*&=&-&;&>&,&Z%'&)&!&~&{&]&! ! g#{             ",
"              x$^&/&(&{ J#_&:&<&[&}&|&! 1&2&! '%d.              ",
"                  3&4&J#5&'%6&7&8&9&! ! 0&a&A.                  ",
"                        z.b&! c&d&g#R+A.                        "};
